<?xml version="1.0" ?><!DOCTYPE svg  PUBLIC '-//W3C//DTD SVG 1.1//EN'  'http://www.w3.org/Graphics/SVG/1.1/DTD/svg11.dtd'><svg enable-background="new 0 0 500 500" height="500px" id="Layer_1" version="1.1" viewBox="0 0 500 500" width="500px" xml:space="preserve" xmlns="http://www.w3.org/2000/svg" xmlns:xlink="http://www.w3.org/1999/xlink"><g><path d="M295.081,141h-90.73C193.617,141,185,150.09,185,160.825v178.922c0,10.736,8.617,19.253,19.351,19.253h90.73    c10.737,0,19.919-8.518,19.919-19.253V160.825C315,150.09,305.818,141,295.081,141z M249.716,354.653    c-4.657,0-8.432-3.775-8.432-8.432c0-4.657,3.775-8.432,8.432-8.432c4.657,0,8.432,3.775,8.432,8.432    C258.148,350.878,254.373,354.653,249.716,354.653z M296,316.084c0,9.202-5.915,16.916-13.906,16.916h-64.755    c-7.989,0-13.339-7.714-13.339-16.916V173.61c0-9.2,5.351-16.61,13.339-16.61h64.755c7.991,0,13.906,7.411,13.906,16.61V316.084z"/></g></svg>