<?xml version="1.0" ?><!DOCTYPE svg  PUBLIC '-//W3C//DTD SVG 1.1//EN'  'http://www.w3.org/Graphics/SVG/1.1/DTD/svg11.dtd'><svg enable-background="new 0 0 500 500" height="500px" id="Layer_1" version="1.1" viewBox="0 0 500 500" width="500px" xml:space="preserve" xmlns="http://www.w3.org/2000/svg" xmlns:xlink="http://www.w3.org/1999/xlink"><g><path d="M316.642,142H184.247C173.629,142,164,150.365,164,160.984v176.996c0,10.62,9.629,20.021,20.247,20.021h132.395    c10.621,0,19.358-9.401,19.358-20.021V160.984C336,150.365,327.263,142,316.642,142z M250.445,352.725    c-4.607,0-8.341-3.734-8.341-8.341c0-4.607,3.734-8.341,8.341-8.341s8.341,3.734,8.341,8.341    C258.786,348.991,255.052,352.725,250.445,352.725z M318,314.571c0,9.103-6.3,17.429-14.204,17.429h-106.7    c-7.903,0-15.096-8.325-15.096-17.429V173.632c0-9.101,7.193-15.632,15.096-15.632h106.7C311.7,158,318,164.531,318,173.632    V314.571z"/></g></svg>